<?xml version="1.0" encoding="UTF-8"?>
<svg id="Warstwa_1" data-name="Warstwa 1" xmlns="http://www.w3.org/2000/svg" viewBox="0 0 672 672">
  <defs>
    <style>
      .cls-1 {
        fill: #af905f;
      }
    </style>
  </defs>
  <rect class="cls-1" x="216" y="96" width="24" height="288"/>
  <path class="cls-1" d="M358,188h-70v-92h-24v116h94c40.87,0,74,33.13,74,74s-33.13,74-74,74h-46v24h46c25.99,0,50.92-10.33,69.3-28.7,18.38-18.38,28.7-43.31,28.7-69.3s-10.32-50.92-28.7-69.3c-18.38-18.38-43.31-28.7-69.3-28.7Z"/>
  <path class="cls-1" d="M352,96h-40v24h40c35.35,0,64,28.65,64,64s-28.65,64-64,64h-88v136h24v-112h64c11.56,0,23-2.28,33.68-6.7,10.68-4.42,20.38-10.9,28.55-19.08,8.17-8.17,14.65-17.87,19.08-28.55,4.42-10.68,6.7-22.12,6.7-33.68s-2.28-23-6.7-33.68c-4.42-10.68-10.9-20.38-19.08-28.55-8.17-8.17-17.87-14.65-28.55-19.08-10.68-4.42-22.12-6.7-33.68-6.7Z"/>
  <path class="cls-1" d="M526.47,486.97c16.06,1.3,27.36,4.68,27.36,15.77,0,9.94-9.43,16.85-27.29,16.85-12.74,0-23.11-3.6-30.82-10.15l6.62-7.85c6.19,5.69,14.18,8.35,24.48,8.35s15.41-1.94,15.41-6.12-5.18-5.33-16.78-6.34c-14.4-1.22-27.79-4.39-27.79-15.19s11.23-16.27,26.78-16.27c11.02,0,20.52,2.74,26.93,7.7l-6.34,7.99c-5.54-4.25-12.38-5.98-20.59-6.05-6.84-.07-15.19,1.15-15.19,5.76,0,4.32,7.2,4.75,17.21,5.54ZM464.82,467.6h11.16v50.4h-10.08l-36.14-36.43v36.43h-11.16v-50.4h12.24l33.98,34.56v-34.56ZM357.4,497.98h20.88l-10.44-20.52-10.44,20.52ZM388.5,518l-5.4-10.66h-30.46l-5.4,10.66h-12.31l26.71-50.4h12.6l26.71,50.4h-12.46ZM287.08,508.06h35.64v9.94h-47.16v-50.4h11.52v40.46ZM214.37,497.98h20.88l-10.44-20.52-10.44,20.52ZM245.47,518l-5.4-10.66h-30.46l-5.4,10.66h-12.31l26.71-50.4h12.6l26.71,50.4h-12.46ZM157.47,508.93c6.48,0,10.3-1.01,10.3-6.05s-3.82-6.05-10.3-6.05h-23.76v12.1h23.76ZM133.71,476.67v11.38h21.38c6.26,0,10.15-1.01,10.15-5.69s-3.89-5.69-10.15-5.69h-21.38ZM165.47,491.65c7.92.43,14.11,4.54,14.11,12.53,0,8.93-7.63,13.82-19.73,13.82h-37.51v-50.4h34.63c12.1,0,19.73,4.75,19.73,12.89,0,5.76-3.74,10.66-11.23,11.16Z"/>
  <path class="cls-1" d="M429.13,550.96h3.29l7.87,13.9v-13.9h2.59v17.04h-3.41l-7.75-13.58v13.58h-2.59v-17.04ZM395.52,550.96h11.09v2.38h-8.5v4.97h8.21v2.3h-8.21v5.02h8.69v2.38h-11.28v-17.04ZM359.72,550.96h2.59v7.3h7.87v-7.3h2.59v17.04h-2.59v-7.39h-7.87v7.39h-2.59v-17.04ZM330.11,568.38c-1.54,0-2.9-.35-4.08-1.06-1.17-.72-2.08-1.74-2.74-3.07-.64-1.34-.96-2.93-.96-4.75s.32-3.38.96-4.73c.66-1.34,1.57-2.38,2.74-3.1,1.18-.74,2.55-1.1,4.1-1.1,2.05,0,3.66.52,4.85,1.56,1.2,1.02,1.99,2.5,2.38,4.42l-2.74.14c-.24-1.2-.74-2.12-1.49-2.76-.74-.66-1.74-.98-3-.98-1.02,0-1.92.26-2.69.79-.77.53-1.37,1.29-1.8,2.28-.42.98-.62,2.14-.62,3.48s.21,2.5.62,3.48c.43.98,1.03,1.73,1.8,2.26.77.51,1.66.77,2.66.77,1.34,0,2.4-.35,3.17-1.06.77-.72,1.26-1.74,1.46-3.05l2.74.14c-.34,1.98-1.14,3.54-2.4,4.66-1.25,1.12-2.9,1.68-4.97,1.68ZM294.06,553.34h-5.23v-2.38h13.06v2.38h-5.23v14.66h-2.59v-14.66ZM264.34,550.96h2.59v17.04h-2.59v-17.04ZM229.06,550.96h2.59v8.14l7.18-8.14h3.14l-6.53,7.44,6.96,9.6h-3.05l-5.64-7.78-2.06,2.3v5.47h-2.59v-17.04Z"/>
</svg>